<?xml version="1.0" standalone="no"?><!DOCTYPE svg PUBLIC "-//W3C//DTD SVG 1.1//EN" "http://www.w3.org/Graphics/SVG/1.1/DTD/svg11.dtd"><svg t="1499500366095" class="icon" style="" viewBox="0 0 1024 1024" version="1.1" xmlns="http://www.w3.org/2000/svg" p-id="2727" xmlns:xlink="http://www.w3.org/1999/xlink" width="64" height="64"><defs><style type="text/css"></style></defs><path d="M496.64 371.2h-71.68c-19.2 0-23.04 6.4-28.16 14.08-5.12 7.68-14.08 30.72-25.6 51.2-8.96 19.2 7.68 24.32 25.6 24.32h102.4c17.92 0 25.6-10.24 25.6-25.6v-51.2c0-15.36-15.36-12.8-28.16-12.8zM512 0C229.12 0 0 229.12 0 512s229.12 512 512 512 512-229.12 512-512S794.88 0 512 0zM217.6 345.6h51.2c7.68 0 12.8 5.12 12.8 12.8s-5.12 12.8-12.8 12.8h-51.2c-7.68 0-12.8-5.12-12.8-12.8s5.12-12.8 12.8-12.8z m-16.64 281.6C172.8 627.2 102.4 595.2 102.4 595.2s69.12-32 98.56-32c16.64 0 29.44 14.08 29.44 32S217.6 627.2 200.96 627.2zM230.4 499.2h-102.4c-7.68 0-12.8-5.12-12.8-12.8s5.12-12.8 12.8-12.8h102.4c7.68 0 12.8 5.12 12.8 12.8s-5.12 12.8-12.8 12.8z m166.4 166.4c-28.16 0-51.2-23.04-51.2-51.2s23.04-51.2 51.2-51.2 51.2 23.04 51.2 51.2-23.04 51.2-51.2 51.2z m422.4 0c-28.16 0-51.2-23.04-51.2-51.2s23.04-51.2 51.2-51.2 51.2 23.04 51.2 51.2-23.04 51.2-51.2 51.2z m83.2-38.4h-7.68c1.28-3.84 1.28-8.96 1.28-12.8 0-42.24-34.56-76.8-76.8-76.8s-76.8 34.56-76.8 76.8c0 3.84 0 8.96 1.28 12.8H472.32c1.28-3.84 1.28-8.96 1.28-12.8 0-42.24-34.56-76.8-76.8-76.8s-76.8 34.56-76.8 76.8c0 3.84 0 8.96 1.28 12.8h-8.96c-10.24 0-17.92-1.28-24.32-12.8H268.8c-7.68 0-12.8-5.12-12.8-12.8s5.12-12.8 12.8-12.8h14.08c0-6.4-1.28-14.08-1.28-23.04 0-46.08 6.4-88.32 34.56-101.12 0-8.96 2.56-19.2 6.4-29.44H256c-7.68 0-12.8-5.12-12.8-12.8s5.12-12.8 12.8-12.8h79.36c23.04-34.56 61.44-64 99.84-64h203.52c24.32 0 49.92 3.84 65.28 21.76 15.36 17.92 58.88 79.36 58.88 79.36 71.68 12.8 158.72 38.4 158.72 71.68v87.04c0 7.68 1.28 21.76-19.2 21.76zM700.16 431.36c-2.56 2.56-5.12 3.84-8.96 3.84h-51.2c-7.68 0-12.8-5.12-12.8-12.8s5.12-12.8 12.8-12.8h49.92c-5.12-10.24-8.96-19.2-11.52-24.32-5.12-7.68-8.96-14.08-28.16-14.08h-72.96c-12.8 0-25.6-2.56-25.6 12.8v51.2c0 14.08 7.68 25.6 25.6 25.6h102.4c17.92 0 34.56-5.12 24.32-24.32-2.56-2.56-2.56-3.84-3.84-5.12z" fill="" p-id="2728"></path></svg>