<?xml version="1.0" standalone="no"?><!DOCTYPE svg PUBLIC "-//W3C//DTD SVG 1.1//EN" "http://www.w3.org/Graphics/SVG/1.1/DTD/svg11.dtd"><svg t="1499500404553" class="icon" style="" viewBox="0 0 1024 1024" version="1.1" xmlns="http://www.w3.org/2000/svg" p-id="4071" xmlns:xlink="http://www.w3.org/1999/xlink" width="64" height="64"><defs><style type="text/css"></style></defs><path d="M512 0C229.12 0 0 229.12 0 512s229.12 512 512 512 512-229.12 512-512S794.88 0 512 0zM153.6 422.4h51.2c7.68 0 12.8 5.12 12.8 12.8s-5.12 12.8-12.8 12.8h-51.2c-7.68 0-12.8-5.12-12.8-12.8s5.12-12.8 12.8-12.8z m64 179.2H115.2c-7.68 0-12.8-5.12-12.8-12.8s5.12-12.8 12.8-12.8h102.4c7.68 0 12.8 5.12 12.8 12.8s-5.12 12.8-12.8 12.8z m435.2 128H320c-7.68 0-12.8-5.12-12.8-12.8s5.12-12.8 12.8-12.8h332.8c7.68 0 12.8 5.12 12.8 12.8s-5.12 12.8-12.8 12.8zM372.48 583.68c28.16-5.12 55.04 14.08 58.88 40.96 5.12 28.16-14.08 55.04-40.96 58.88-28.16 5.12-55.04-14.08-58.88-40.96-5.12-28.16 14.08-53.76 40.96-58.88zM806.4 610.56c-28.16 5.12-55.04-14.08-58.88-40.96s14.08-55.04 40.96-58.88c28.16-5.12 55.04 14.08 58.88 40.96 5.12 28.16-12.8 55.04-40.96 58.88z m75.52-51.2c-1.28 0-3.84 1.28-7.68 1.28 0-3.84 0-8.96-1.28-12.8-7.68-42.24-47.36-69.12-89.6-62.72s-69.12 47.36-62.72 89.6c1.28 3.84 2.56 8.96 3.84 12.8-83.2 14.08-184.32 32-267.52 47.36 0-3.84 0-8.96-1.28-12.8-7.68-42.24-47.36-69.12-89.6-62.72-42.24 7.68-69.12 47.36-62.72 89.6 1.28 3.84 2.56 8.96 3.84 12.8-5.12 1.28-7.68 1.28-7.68 1.28-17.92 2.56-32 0-40.96-55.04-5.12-30.72-7.68-60.16 0-81.92H192c-7.68 0-12.8-5.12-12.8-12.8s5.12-12.8 12.8-12.8h84.48c-7.68-51.2 39.68-126.72 96-136.96 56.32-10.24 175.36-30.72 199.68-35.84 24.32-3.84 49.92-5.12 67.84 10.24 17.92 15.36 71.68 67.84 71.68 67.84 72.96 0 163.84 10.24 168.96 43.52 6.4 33.28 15.36 85.76 15.36 85.76 2.56 6.4 5.12 20.48-14.08 24.32zM467.2 385.28c-2.56-15.36-16.64-10.24-29.44-7.68-12.8 2.56-51.2 8.96-70.4 12.8-19.2 3.84-21.76 10.24-25.6 19.2-3.84 8.96-8.96 32-15.36 53.76-6.4 21.76 11.52 23.04 28.16 20.48 16.64-2.56 83.2-14.08 101.12-17.92 17.92-2.56 23.04-15.36 20.48-29.44 0-1.28-6.4-37.12-8.96-51.2z m151.04-25.6c-6.4-6.4-11.52-12.8-29.44-8.96-19.2 3.84-60.16 10.24-72.96 12.8-12.8 2.56-25.6 2.56-23.04 16.64 2.56 15.36 8.96 49.92 8.96 49.92 2.56 14.08 11.52 24.32 29.44 20.48 17.92-2.56 83.2-15.36 101.12-17.92 16.64-2.56 33.28-10.24 19.2-28.16-14.08-17.92-26.88-38.4-33.28-44.8z" fill="" p-id="4072"></path></svg>