<?xml version="1.0" standalone="no"?><!DOCTYPE svg PUBLIC "-//W3C//DTD SVG 1.1//EN" "http://www.w3.org/Graphics/SVG/1.1/DTD/svg11.dtd"><svg t="1499500119889" class="icon" style="" viewBox="0 0 1024 1024" version="1.1" xmlns="http://www.w3.org/2000/svg" p-id="2052" xmlns:xlink="http://www.w3.org/1999/xlink" width="64" height="64"><defs><style type="text/css"></style></defs><path d="M495.36 340.48c-12.8-2.56-51.2-8.96-70.4-12.8-19.2-3.84-24.32 2.56-30.72 8.96-6.4 6.4-19.2 26.88-33.28 46.08-14.08 17.92 2.56 25.6 20.48 28.16 16.64 2.56 83.2 14.08 101.12 17.92 17.92 3.84 26.88-6.4 29.44-20.48 0 0 6.4-35.84 8.96-49.92 1.28-15.36-12.8-15.36-25.6-17.92zM512 0C229.12 0 0 229.12 0 512s229.12 512 512 512 512-229.12 512-512S794.88 0 512 0z m172.8 308.48c10.24-1.28 29.44 0 43.52 14.08 16.64 16.64 16.64 32 14.08 43.52-1.28 14.08-24.32 11.52-21.76-7.68 1.28-7.68-2.56-16.64-7.68-21.76-5.12-5.12-15.36-7.68-21.76-7.68-17.92 2.56-17.92-17.92-6.4-20.48zM153.6 384h76.8c7.68 0 12.8 5.12 12.8 12.8s-5.12 12.8-12.8 12.8h-76.8c-7.68 0-12.8-5.12-12.8-12.8s5.12-12.8 12.8-12.8z m12.8 153.6H64c-7.68 0-12.8-5.12-12.8-12.8s5.12-12.8 12.8-12.8h102.4c7.68 0 12.8 5.12 12.8 12.8s-5.12 12.8-12.8 12.8z m238.08 34.56c-5.12 28.16-32 46.08-58.88 40.96-28.16-5.12-46.08-32-40.96-58.88 5.12-28.16 32-46.08 58.88-40.96 26.88 3.84 46.08 30.72 40.96 58.88zM819.2 729.6H460.8c-7.68 0-12.8-5.12-12.8-12.8s5.12-12.8 12.8-12.8h358.4c7.68 0 12.8 5.12 12.8 12.8s-5.12 12.8-12.8 12.8z m-99.84-102.4c5.12-28.16 32-46.08 58.88-40.96 28.16 5.12 46.08 32 40.96 58.88-5.12 28.16-32 46.08-58.88 40.96-26.88-3.84-46.08-30.72-40.96-58.88z m153.6 17.92c-1.28 7.68-2.56 21.76-21.76 17.92-1.28 0-3.84-1.28-7.68-1.28 1.28-3.84 2.56-7.68 3.84-12.8 7.68-42.24-20.48-81.92-62.72-89.6-42.24-7.68-81.92 20.48-89.6 62.72-1.28 3.84-1.28 8.96-1.28 12.8-83.2-14.08-184.32-32-267.52-47.36 1.28-3.84 2.56-7.68 3.84-12.8 7.68-42.24-20.48-81.92-62.72-89.6-42.24-7.68-81.92 20.48-89.6 62.72-1.28 3.84-1.28 8.96-1.28 12.8-5.12-1.28-7.68-1.28-7.68-1.28-17.92-2.56-29.44-10.24-20.48-65.28 1.28-7.68 2.56-14.08 3.84-21.76H192c-7.68 0-12.8-5.12-12.8-12.8s5.12-12.8 12.8-12.8h69.12c8.96-24.32 20.48-40.96 39.68-46.08 8.96-51.2 80.64-106.24 136.96-97.28 56.32 10.24 175.36 30.72 199.68 35.84 24.32 3.84 48.64 12.8 61.44 33.28s44.8 88.32 44.8 88.32c67.84 24.32 149.76 65.28 144.64 98.56-6.4 34.56-15.36 85.76-15.36 85.76zM670.72 386.56c-3.84-8.96-6.4-15.36-25.6-19.2-19.2-3.84-60.16-10.24-72.96-12.8-12.8-2.56-24.32-6.4-26.88 7.68-2.56 15.36-8.96 49.92-8.96 49.92-2.56 14.08 2.56 26.88 20.48 29.44 17.92 2.56 83.2 15.36 101.12 17.92 16.64 2.56 34.56 1.28 28.16-20.48-6.4-20.48-12.8-44.8-15.36-52.48z" fill="" p-id="2053"></path></svg>