<?xml version="1.0" standalone="no"?><!DOCTYPE svg PUBLIC "-//W3C//DTD SVG 1.1//EN" "http://www.w3.org/Graphics/SVG/1.1/DTD/svg11.dtd"><svg t="1499500137434" class="icon" style="" viewBox="0 0 1024 1024" version="1.1" xmlns="http://www.w3.org/2000/svg" p-id="2321" xmlns:xlink="http://www.w3.org/1999/xlink" width="64" height="64"><defs><style type="text/css"></style></defs><path d="M511.648242 511.648242m-511.648242 0a511.648242 511.648242 0 1 0 1023.296484 0 511.648242 511.648242 0 1 0-1023.296484 0Z" fill="#999999" p-id="2322"></path><path d="M704.635563 620.501405c-1.343077-28.956093-22.480545-44.049716-56.185373-57.048779l-166.493535-62.676909v-93.727563h66.386359L441.10474 244.855662 333.850478 407.016176h66.402348v64.563613a142.238211 142.238211 0 0 0-0.351758 13.318843v31.290488c1.662857 24.894885 27.852851 34.31241 36.614827 39.572794l186.415839 80.680532v110.03635h81.703829v-125.977391zM229.841984 244.855662h63.95603v525.318843h-63.95603zM755.480607 244.855662h63.95603v525.318843h-63.95603z" fill="#FFFFFF" p-id="2323"></path></svg>