<?xml version="1.0" standalone="no"?><!DOCTYPE svg PUBLIC "-//W3C//DTD SVG 1.1//EN" "http://www.w3.org/Graphics/SVG/1.1/DTD/svg11.dtd"><svg t="1499500145898" class="icon" style="" viewBox="0 0 1024 1024" version="1.1" xmlns="http://www.w3.org/2000/svg" p-id="2446" xmlns:xlink="http://www.w3.org/1999/xlink" width="64" height="64"><defs><style type="text/css"></style></defs><path d="M511.648242 511.648242m-511.648242 0a511.648242 511.648242 0 1 0 1023.296484 0 511.648242 511.648242 0 1 0-1023.296484 0Z" fill="#969DA7" p-id="2447"></path><path d="M491.805883 560.830429c18.131535 0 36.295047 0 54.442571 0.031978a35710.920742 35710.920742 0 0 0 7.147087 78.601961h-71.790644l5.78802-44.657298 4.412966-33.976641z m-73.677346-77.786522V376.924864l0.079945-0.863406 0.047967-2.862033c-0.095934-4.972581-0.879395-8.554119-2.494285-10.408844-1.61489-1.870714-4.956592-2.973955-10.31291-3.229779-1.071264-0.063956-2.030604-0.063956-2.878022-0.063956l-0.31978 0.111923h-26.397851v27.149335l-38.309662-24.143402-38.309663-24.15939 38.309663-24.143401 38.309662-24.159391v25.806258h26.397851v0.095934c1.742802-0.031978 3.341703-0.031978 4.748735 0.031978 16.548623 0.751483 28.988071 6.683405 37.782025 16.852414 8.777965 10.200987 12.999063 23.647742 13.254887 39.572794 0.031978 1.534945 0.015989 3.005933-0.015989 4.396977h0.047968v106.119043h-39.940541v0.015989z m288.969333-207.457373l-11.064393 46.767847-11.064393 46.767847-18.739117-20.066204-27.261258 29.771532c-4.892636 6.267691-8.809943 11.624008-11.256261 16.388733a25.422522 25.422522 0 0 0-3.021923 10.63269h0.079945v75.675973h-39.95653v-75.675973l0.063956-0.351758c0.207857-11.655987 3.037911-21.649116 8.05846-31.370433 4.301043-8.410218 9.897196-16.132909 16.692524-24.750984l1.007308-1.295109 27.117356-29.595653-15.877084-17.028294 42.594716-12.951096 42.626694-12.919118zM516.764724 263.24302l22.112798 41.827244 22.128786 41.827244h-24.031478v22.176753c8.458185 5.004559 14.965711 11.991756 19.394666 19.938293 4.604834 8.266317 6.955218 17.571919 6.971207 26.941478a54.794329 54.794329 0 0 1-7.019174 27.085378 52.332022 52.332022 0 0 1-19.33071 19.50659v19.858347h-39.95653v-52.507901l15.685216-3.757417c5.052526-1.215165 8.21835-3.469615 9.721317-6.123789a8.154394 8.154394 0 0 0-0.095934-8.330273c-1.598901-2.862032-4.812691-5.308351-9.705328-6.523515l-15.605271-3.853351v-54.410593h-24.49516l22.112798-41.827244 22.112797-41.827244z m-85.013553 245.830992l-36.007245 76.427456-82.247455 174.536006h152.503154l8.825932-68.177128h83.334708l6.219724 68.177128h159.634251l-78.314159-174.536006-34.280432-76.427456h-69.903941l2.318406 25.326588h-48.638561c1.199176-9.113734 2.270439-17.539941 3.277747-25.326588h-66.722129z" fill="#FFFFFF" p-id="2448"></path></svg>