<?xml version="1.0" standalone="no"?><!DOCTYPE svg PUBLIC "-//W3C//DTD SVG 1.1//EN" "http://www.w3.org/Graphics/SVG/1.1/DTD/svg11.dtd"><svg t="1499500703523" class="icon" style="" viewBox="0 0 1024 1024" version="1.1" xmlns="http://www.w3.org/2000/svg" p-id="6127" xmlns:xlink="http://www.w3.org/1999/xlink" width="64" height="64"><defs><style type="text/css"></style></defs><path d="M512 512 297.854167 512C274.351562 512 256 531.102549 256 554.666667 256 577.541632 274.738749 597.333333 297.854167 597.333333L555.479166 597.333333C567.095406 597.333333 577.453316 592.66688 584.959076 585.101653 592.501309 577.253717 597.333333 566.900736 597.333333 555.479125L597.333333 297.854208C597.333333 274.351531 578.230816 256 554.666667 256 531.791666 256 512 274.738773 512 297.854208L512 512ZM512 1024C229.230208 1024 0 794.769749 0 512 0 229.230251 229.230208 0 512 0 794.769792 0 1024 229.230251 1024 512 1024 794.769749 794.769792 1024 512 1024Z" p-id="6128"></path></svg>