<?xml version="1.0" standalone="no"?><!DOCTYPE svg PUBLIC "-//W3C//DTD SVG 1.1//EN" "http://www.w3.org/Graphics/SVG/1.1/DTD/svg11.dtd"><svg t="1499500617594" class="icon" style="" viewBox="0 0 1024 1024" version="1.1" xmlns="http://www.w3.org/2000/svg" p-id="5454" xmlns:xlink="http://www.w3.org/1999/xlink" width="64" height="64"><defs><style type="text/css"></style></defs><path d="M0 547.285429C17.899355 800.907337 220.520664 1003.528645 474.142572 1021.427997L474.142572 877.714286 547.285429 877.714286 547.285429 1021.427997C800.875988 1003.530862 1003.478557 800.957418 1021.421356 547.379464L877.714 547.379464 877.714 474.236607 1021.434631 474.236607C1003.578726 220.570749 800.938679 17.901567 547.285429 0L547.285429 144.999714 474.142572 144.999714 474.142572 0C220.520664 17.899355 17.899355 220.520664 0 474.142572L144.999714 474.142572 144.999714 547.285429 0 547.285429 0 547.285429 0 547.285429 0 547.285429 0 547.285429 0 547.285429 0 547.285429 0 547.285429 0 547.285429 0 547.285429 0 547.285429 0 547.285429ZM591.335702 466.691235 595.206507 469.131954 594.57733 469.76721C610.546868 485.742828 620.425247 507.802007 620.425247 532.165127 620.425247 580.911125 580.905654 620.430718 532.155097 620.430718 507.779818 620.430718 485.71912 610.558419 469.749581 594.594959L469.102167 595.240853 466.603698 591.281902C459.848406 583.789533 454.368186 575.134553 450.474585 565.660428L254.71704 254.716432 565.589609 450.478536C575.116924 454.379736 583.826615 459.894911 591.335702 466.691235L591.335702 466.691235 591.335702 466.691235 591.335702 466.691235 591.335702 466.691235 591.335702 466.691235 591.335702 466.691235 591.335702 466.691235 591.335702 466.691235 591.335702 466.691235 591.335702 466.691235 591.335702 466.691235Z" p-id="5455"></path></svg>