<?xml version="1.0" standalone="no"?><!DOCTYPE svg PUBLIC "-//W3C//DTD SVG 1.1//EN" "http://www.w3.org/Graphics/SVG/1.1/DTD/svg11.dtd"><svg t="1499500593024" class="icon" style="" viewBox="0 0 1024 1024" version="1.1" xmlns="http://www.w3.org/2000/svg" p-id="4749" xmlns:xlink="http://www.w3.org/1999/xlink" width="64" height="64"><defs><style type="text/css"></style></defs><path d="M802.816 1024H221.184c-102.4 0-186.368-83.968-186.368-186.368V186.368c0-102.4 83.968-186.368 186.368-186.368h581.632c102.4 0 186.368 83.968 186.368 186.368v651.264c0 102.4-83.968 186.368-186.368 186.368zM174.08 360.448c0-18.432-16.384-34.816-34.816-34.816-18.432 0-34.816 16.384-34.816 34.816v325.632c0 18.432 16.384 34.816 34.816 34.816 18.432 0 34.816-16.384 34.816-34.816V360.448z m720.896 81.92c-2.048-4.096-4.096-10.24-8.192-12.288-6.144-6.144-14.336-10.24-24.576-10.24-18.432 0-34.816 16.384-34.816 34.816 0 10.24 4.096 18.432 10.24 24.576l-2.048 2.048c8.192 16.384 14.336 34.816 14.336 55.296 0 63.488-51.2 116.736-116.736 116.736-63.488 0-116.736-51.2-116.736-116.736 0-63.488 51.2-116.736 116.736-116.736 8.192 0 16.384 0 24.576 2.048-4.096-2.048-6.144-6.144-8.192-8.192 6.144 4.096 12.288 6.144 18.432 6.144 18.432 0 34.816-16.384 34.816-34.816s-16.384-36.864-34.816-36.864c-4.096 0-8.192 0-10.24 2.048-8.192-2.048-16.384-2.048-24.576-2.048-61.44 0-116.736 30.72-151.552 77.824-32.768-47.104-88.064-77.824-151.552-77.824-102.4 0-186.368 83.968-186.368 186.368s83.968 186.368 186.368 186.368c61.44 0 116.736-30.72 151.552-77.824 32.768 47.104 88.064 77.824 151.552 77.824 102.4 0 186.368-83.968 186.368-186.368 0-32.768-10.24-63.488-24.576-92.16zM430.08 651.264c-63.488 0-116.736-51.2-116.736-116.736 0-63.488 51.2-116.736 116.736-116.736s116.736 51.2 116.736 116.736-51.2 116.736-116.736 116.736z" p-id="4750"></path></svg>